<svg width="24" height="24" viewBox="0 0 24 24" fill="none" xmlns="http://www.w3.org/2000/svg">
<path d="M6 14.5005C6 14.7657 5.89464 15.0201 5.70711 15.2076C5.51957 15.3951 5.26522 15.5005 5 15.5005C4.73478 15.5005 4.48043 15.3951 4.29289 15.2076C4.10536 15.0201 4 14.7657 4 14.5005V10.0005C4 9.73529 4.10536 9.48093 4.29289 9.2934C4.48043 9.10586 4.73478 9.0005 5 9.0005C5.26522 9.0005 5.51957 9.10586 5.70711 9.2934C5.89464 9.48093 6 9.73529 6 10.0005V14.5005Z" fill="#7CB342"/>
<path d="M20 14.5005C20 14.7657 19.8946 15.0201 19.7071 15.2076C19.5196 15.3951 19.2652 15.5005 19 15.5005C18.7348 15.5005 18.4804 15.3951 18.2929 15.2076C18.1054 15.0201 18 14.7657 18 14.5005V10.0005C18 9.73529 18.1054 9.48093 18.2929 9.2934C18.4804 9.10586 18.7348 9.0005 19 9.0005C19.2652 9.0005 19.5196 9.10586 19.7071 9.2934C19.8946 9.48093 20 9.73529 20 10.0005V14.5005Z" fill="#7CB342"/>
<path d="M11 20C11 20.2652 10.8946 20.5196 10.7071 20.7071C10.5196 20.8946 10.2652 21 10 21C9.73478 21 9.48043 20.8946 9.29289 20.7071C9.10536 20.5196 9 20.2652 9 20V15.5C9 15.2348 9.10536 14.9804 9.29289 14.7929C9.48043 14.6054 9.73478 14.5 10 14.5C10.2652 14.5 10.5196 14.6054 10.7071 14.7929C10.8946 14.9804 11 15.2348 11 15.5V20Z" fill="#7CB342"/>
<path d="M15 20C15 20.2652 14.8946 20.5196 14.7071 20.7071C14.5196 20.8946 14.2652 21 14 21C13.7348 21 13.4804 20.8946 13.2929 20.7071C13.1054 20.5196 13 20.2652 13 20V15.5C13 15.2348 13.1054 14.9804 13.2929 14.7929C13.4804 14.6054 13.7348 14.5 14 14.5C14.2652 14.5 14.5196 14.6054 14.7071 14.7929C14.8946 14.9804 15 15.2348 15 15.5V20Z" fill="#7CB342"/>
<path d="M7 9.0005V16.5C7 16.7652 7.10536 17.0196 7.29289 17.2071C7.48043 17.3946 7.73478 17.5 8 17.5H16C16.2652 17.5 16.5196 17.3946 16.7071 17.2071C16.8946 17.0196 17 16.7652 17 16.5V9.0005H7Z" fill="#7CB342"/>
<path d="M12 4C9 4 7.1725 5.8225 7 8H17C16.827 5.8225 15 4 12 4ZM10 6.799C9.86739 6.799 9.74021 6.74632 9.64645 6.65255C9.55268 6.55879 9.5 6.43161 9.5 6.299C9.5 6.16639 9.55268 6.03921 9.64645 5.94545C9.74021 5.85168 9.86739 5.799 10 5.799C10.1326 5.799 10.2598 5.85168 10.3536 5.94545C10.4473 6.03921 10.5 6.16639 10.5 6.299C10.5 6.43161 10.4473 6.55879 10.3536 6.65255C10.2598 6.74632 10.1326 6.799 10 6.799ZM14 6.799C13.8674 6.799 13.7402 6.74632 13.6464 6.65255C13.5527 6.55879 13.5 6.43161 13.5 6.299C13.5 6.16639 13.5527 6.03921 13.6464 5.94545C13.7402 5.85168 13.8674 5.799 14 5.799C14.1326 5.799 14.2598 5.85168 14.3536 5.94545C14.4473 6.03921 14.5 6.16639 14.5 6.299C14.5 6.43161 14.4473 6.55879 14.3536 6.65255C14.2598 6.74632 14.1326 6.799 14 6.799Z" fill="#7CB342"/>
<path d="M15 3.5L14.167 4.7495" stroke="#7CB342" stroke-linecap="round"/>
<path d="M8 4L8.6665 5.041" stroke="#7CB342" stroke-linecap="round"/>
</svg>
