<svg width="87" height="120" viewBox="0 0 87 120" fill="none" xmlns="http://www.w3.org/2000/svg">
<path d="M81 57L82.5 55.5L83 55L84 56.5L84.5 59L85 61.5V63.5L84.5 65.5" stroke="black" stroke-width="0.3"/>
<path d="M4.5 60L3.5 63.5V65V67L4.5 69L5.5 71" stroke="black" stroke-width="0.3"/>
<path d="M78 71.5V72L78.5 72.5L79.5 73H80" stroke="black" stroke-width="0.1"/>
<path d="M37.5 92.5V91.5" stroke="black" stroke-width="0.1"/>
<path d="M35 92L35.5 91" stroke="black" stroke-width="0.1"/>
<path d="M49.5 92V91" stroke="black" stroke-width="0.1"/>
<path d="M48 91.5V92.5" stroke="black" stroke-width="0.1"/>
<path d="M60.5 82L62.5 83L63.5 84.5L64 86" stroke="black" stroke-width="0.1"/>
<path d="M14.5 88.5L15.5 90.5V91.5" stroke="black" stroke-width="0.1"/>
<path d="M36.5 102L40 101.5H44L47 102" stroke="black" stroke-width="0.2"/>
<path d="M45 57.5L46 61L47 62.5" stroke="black" stroke-width="0.1"/>
<path d="M35.5 57L35.3 58.5385L34.9 59.7692L34.5 61" stroke="black" stroke-width="0.1"/>
<path d="M31 58L28.5 59.5L25 60.5H20" stroke="black" stroke-width="0.5"/>
<path d="M47.5 55.9091L48.5 54.8182L50 53.7273L51.5 52.6364L53 52.0909L54.5 51.5455L56.5 51H58H59.5L61 51.5455L62.5 52.0909L63.5 52.6364L64.5 53.1818L65.5 54.2727L66 54.8182L66.5 55.3636H65L64 55.9091L63 56.4545L62 57H60.5H59.5H58.5H57H55.5H54H53L52 56.4545L51 55.9091H50H49" stroke="black" stroke-width="0.5"/>
<path d="M31 77L32 76H33H34H34.5L35.5 76.5L36.5 77L37 78L37.5 78.5L38 79L39 79.5H40L41 79L42 78.5L42.5 78L43 77.5L44 77L45 76.5H46H46.5H47H48L48.5 77L49 77.5" stroke="black" stroke-width="0.3"/>
<path d="M49.5 71L50.5 72L51.5 73L52 74V75V76.5L51.5 77L51 77.5L50 78H49.5L49 77.5" stroke="black" stroke-width="0.3"/>
<path d="M31.5 77H33H34H34.5H35.5L36 77.5" stroke="black" stroke-width="0.1"/>
<path d="M45 77H46.5L47.5 77.5L49 78" stroke="black" stroke-width="0.2"/>
<path d="M31.5 70.5L30.5 71.5L29.5 72.5L29 74V75.5L29.5 76.5L30 77H30.5H31L31.5 76.5" stroke="black" stroke-width="0.3"/>
<path d="M70 44.5L71 47V48L70.5 47.5L69.5 46.5L68.5 46L66.5 44.5L64.7457 43.5L62 43L60 43.5H58L55.5 44H52.5L50 45L48.5 46L47.5 45L47 44L47.5 43L48.5 42L49.5 41L51.3668 40.5L54 40L56 39.5H58.5L61 39L63.5 40V39.5H65L66 40.5L67.5 41.5L68.5 43L70 44.5Z" stroke="black" stroke-width="0.5"/>
<path d="M36.5 119H43H45L51 118L56 115.5L60.5 112L69.5 104.5L74.5 95.5L76 87C76.1667 84.1667 76.7 78.5 77.5 78.5L80 78L81.5 76C81.3333 75.1667 81.2 73.5 82 73.5L84.5 67.5L86.5 64.5V61.5L85 56L83.5 53.5L81 53L81.5 49L81 39L80 30.5L78.5 24.5L72 16.5L65 10L53.5 3L47.5 1H44.5L36 2L27.5 4L20 8L14.5 12L10.5 16.5L7.5 21.5L5 28L4 32.5L3.5 42L5 54.5H3.5L2 56V58.5L1 61.5V63.5L6 76V78.5L9 80.5V84.5L11 92.5L14 100.5L18 106L23.5 110L30.5 117L36.5 119Z" stroke="black"/>
<path d="M15 52L16.5 50.5L18 49.5L19.5 49L21 48.5H22.5H24H25.5L27 49L28 49.5L29.5 50.5" stroke="black" stroke-width="0.5"/>
<path d="M50.5 50L52 49L53.5 48L55.5 47.5H57H58.5L60.5 48L62 48.5L63.5 49L64.5 50L65 50.5L65.5 51.5" stroke="black" stroke-width="0.5"/>
<path d="M14 55L15.5 54.5L17 53.5L18.5 52.5L19.5 52L20.5 51.5H22.5H24H25.5L27 52L28.5 52.5L29.5 53L31 54L31.5 54.5L32.5 55V55.5L31.5 56H30.5H29H28L26 56.5L24.5 57H23H22H21L19 56.5L17.5 56L16.5 55.5H15.5L15 55" stroke="black" stroke-width="0.5"/>
<path d="M5 55L6 56.5V59.5L6.5 63.5L7.5 59.5V57L8 54V50L7.5 45L8 41V39.5L10 37L11.5 33L10 29.5L9 26L9.5 21.5L12.5 18L15.5 15L18.5 12.5L23 11L30 11.5L36 9.5L37.5 11.5L39.5 11L42 13L46 11.5L48.5 13L53 11L56 12L57.5 11.5L59.5 12L61.5 13L66 16L68 19.5L70.5 22.5V26.5V30.5L70 33.5L73 40L74 43.5L75 47.5L75.5 52L76 55.5L76.5 59L77.5 63L78 67L79.5 63.5L79 61V58V56L80 54.5L81 53.5" stroke="black"/>
<path d="M11 45L10.5 47.5L11.5 46L12.5 45L14 44.5L15.5 43.5L17 43L18.5 42.5H20.5L22.5 43L24.5 43.5L25.5 44L25 43.5H26.5L27.5 44L29 44.5L30 45H31L31.5 44L32 43L31.5 42L31 41L30 40H28H26.5L24 39.5L22 39H20.5L18.5 39.5L19 39H17.5L15.5 39.5L13.5 41.5L12 43L11 45Z" stroke="black" stroke-width="0.5"/>
<path d="M53 59L57 60.5H60.5L64 59" stroke="black" stroke-width="0.5"/>
<path d="M27.5 91L29 93L31 95L32 96L33 96.5L35 97.5L37 98L39 98.5H41.5H43.5H45.5L47 98L49 97.5L50.5 96.5L51.5 95.5L53 94L54.5 92.5L56 91" stroke="black" stroke-width="0.2"/>
<path d="M26.5 88.5H28H30L31.5 88L33 87.5H34.5H36H37.5L38.5 88L39.5 88.5H41L42.5 88L44 87.5H45.5H47.5L49.5 88L53.5 88.5H55.5" stroke="black" stroke-width="0.2"/>
<path d="M33.5 91.5L30.5 90.5L35 91L37.5 91.5H40.5H44H48L49.6993 91H51L53.5 90.5L51.5 91.5L49.6993 92L48 92.5H46H43H40.5H37L33.5 91.5Z" stroke="black" stroke-width="0.2"/>
<circle cx="23" cy="53.5" r="2.5" fill="black"/>
<circle cx="57" cy="53.5" r="2.5" fill="black"/>
<path d="M20 85.5L20.5 83.5L21.5 82L22.5 81.5" stroke="black" stroke-width="0.2"/>
<path d="M43 91.5V92.5" stroke="black" stroke-width="0.1"/>
<path d="M2.5 56L5.5 62" stroke="black" stroke-width="0.3"/>
<path d="M81 71.5L82 70L82.5 68.5L83 67.5V66V64.5V63L82.5 61.5L82 60L81.5 59" stroke="black" stroke-width="0.3"/>
</svg>
