<svg width="93" height="127" viewBox="0 0 93 127" fill="none" xmlns="http://www.w3.org/2000/svg">
<path d="M85.7458 60.322L87.3347 58.7331L87.8644 58.2034L88.9237 59.7924L89.4534 62.4407L89.983 65.089V67.2076L89.4534 69.3263" stroke="black" stroke-width="0.317797"/>
<path d="M4.70763 63.5L3.64831 67.2076V68.7966V70.9153L4.70763 73.0339L5.76695 75.1525" stroke="black" stroke-width="0.317797"/>
<path d="M82.5678 75.6822V76.2119L83.0975 76.7415L84.1568 77.2712H84.6864" stroke="black" stroke-width="0.105932"/>
<path d="M39.6653 97.928V96.8687" stroke="black" stroke-width="0.105932"/>
<path d="M37.0169 97.3983L37.5466 96.339" stroke="black" stroke-width="0.105932"/>
<path d="M52.3771 97.3983V96.339" stroke="black" stroke-width="0.105932"/>
<path d="M50.7881 96.8687V97.928" stroke="black" stroke-width="0.105932"/>
<path d="M64.0297 86.8051L66.1483 87.8644L67.2076 89.4534L67.7373 91.0424" stroke="black" stroke-width="0.105932"/>
<path d="M15.3008 93.6907L16.3602 95.8093V96.8686" stroke="black" stroke-width="0.105932"/>
<path d="M38.6059 107.992L42.3136 107.462H46.5508L49.7288 107.992" stroke="black" stroke-width="0.211864"/>
<path d="M47.6102 60.8517L48.6695 64.5593L49.7288 66.1483" stroke="black" stroke-width="0.105932"/>
<path d="M37.5466 60.322L37.3347 61.9517L36.911 63.2555L36.4873 64.5593" stroke="black" stroke-width="0.105932"/>
<path d="M32.7797 61.3813L30.1314 62.9703L26.4237 64.0297H21.1271" stroke="black" stroke-width="0.529661"/>
<path d="M50.2585 59.1664L51.3178 58.0108L52.9068 56.8552L54.4958 55.6995L56.0847 55.1217L57.6737 54.5439L59.7924 53.9661H61.3813H62.9703L64.5593 54.5439L66.1483 55.1217L67.2076 55.6995L68.2669 56.2773L69.3263 57.433L69.8559 58.0108L70.3856 58.5886H68.7966L67.7373 59.1664L66.678 59.7442L65.6186 60.322H64.0297H62.9703H61.911H60.322H58.733H57.1441H56.0847L55.0254 59.7442L53.9661 59.1664H52.9068H51.8475" stroke="black" stroke-width="0.529661"/>
<path d="M32.7797 81.5085L33.839 80.4492H34.8983H35.9576H36.4873L37.5466 80.9788L38.6059 81.5085L39.1356 82.5678L39.6653 83.0975L40.1949 83.6271L41.2542 84.1568H42.3136L43.3729 83.6271L44.4322 83.0975L44.9619 82.5678L45.4915 82.0381L46.5508 81.5085L47.6102 80.9788H48.6695H49.1992H49.7288H50.7881L51.3178 81.5085L51.8475 82.0381" stroke="black" stroke-width="0.317797"/>
<path d="M52.3771 75.1526L53.4364 76.2119L54.4958 77.2712L55.0254 78.3305V79.3898V80.9788L54.4958 81.5085L53.9661 82.0382L52.9068 82.5678H52.3771L51.8475 82.0382" stroke="black" stroke-width="0.317797"/>
<path d="M33.3093 81.5085H34.8983H35.9576H36.4873H37.5466L38.0763 82.0381" stroke="black" stroke-width="0.105932"/>
<path d="M47.6102 81.5085H49.1992L50.2585 82.0381L51.8475 82.5678" stroke="black" stroke-width="0.211864"/>
<path d="M33.3093 74.6229L32.25 75.6822L31.1907 76.7415L30.661 78.3305V79.9195L31.1907 80.9788L31.7203 81.5085H32.25H32.7797L33.3093 80.9788" stroke="black" stroke-width="0.317797"/>
<path d="M74.0932 47.0805L75.1525 49.7288V50.7881L74.6229 50.2585L73.5636 49.1992L72.5042 48.6695L70.3856 47.0805L68.5272 46.0212L65.6186 45.4915L63.5 46.0212H61.3813L58.733 46.5509H55.5551L52.9068 47.6102L51.3178 48.6695L50.2585 47.6102L49.7288 46.5509L50.2585 45.4915L51.3178 44.4322L52.3771 43.3729L54.3546 42.8432L57.1441 42.3136L59.2627 41.7839H61.911L64.5593 41.2542L67.2076 42.3136V41.7839H68.7966L69.8559 42.8432L71.4449 43.9025L72.5042 45.4915L74.0932 47.0805Z" stroke="black" stroke-width="0.529661"/>
<path d="M38.6059 126H45.4915H47.6102L53.9661 124.941L59.2627 122.292L64.0297 118.585L73.5636 110.64L78.8602 101.106L80.4492 92.1017C80.6257 89.1003 81.1907 83.0975 82.0381 83.0975L84.6864 82.5678L86.2754 80.4492C86.0989 79.5664 85.9576 77.8008 86.8051 77.8008L89.4534 71.4449L91.572 68.2669V65.089L89.983 59.2627L88.3941 56.6144L85.7458 56.0847L86.2754 51.8475L85.7458 41.2542L84.6864 32.25L83.0975 25.8941L76.2119 17.4195L68.7966 10.5339L56.6144 3.11864L50.2585 1H47.0805L38.0763 2.05932L29.072 4.17797L21.1271 8.41525L15.3008 12.6525L11.0636 17.4195L7.88559 22.7161L5.23729 29.6017L4.17797 34.3686L3.6483 44.4322L5.23729 57.6737H3.6483L2.05932 59.2627V61.911L1 65.089V67.2076L6.29661 80.4492V83.0975L9.47458 85.2161V89.4534L11.5932 97.928L14.7712 106.403L19.0085 112.229L24.8347 116.466L32.25 123.881L38.6059 126Z" stroke="black" stroke-width="1.05932"/>
<path d="M15.8305 55.0254L17.4195 53.4365L19.0085 52.3771L20.5975 51.8475L22.1864 51.3178H23.7754H25.3644H26.9534L28.5424 51.8475L29.6017 52.3771L31.1907 53.4365" stroke="black" stroke-width="0.529661"/>
<path d="M53.4364 52.9068L55.0254 51.8475L56.6144 50.7881L58.733 50.2585H60.322H61.911L64.0297 50.7881L65.6186 51.3178L67.2076 51.8475L68.2669 52.9068L68.7966 53.4364L69.3263 54.4958" stroke="black" stroke-width="0.529661"/>
<path d="M14.7712 58.2034L16.3602 57.6737L17.9491 56.6144L19.5381 55.5551L20.5975 55.0254L21.6568 54.4958H23.7754H25.3644H26.9534L28.5424 55.0254L30.1313 55.5551L31.1907 56.0847L32.7797 57.1441L33.3093 57.6737L34.3686 58.2034V58.733L33.3093 59.2627H32.25H30.661H29.6017L27.483 59.7924L25.8941 60.322H24.3051H23.2458H22.1864L20.0678 59.7924L18.4788 59.2627L17.4195 58.733H16.3602L15.8305 58.2034" stroke="black" stroke-width="0.529661"/>
<path d="M5.23728 58.2034L6.2966 59.7924V62.9703L6.82626 67.2076L7.88559 62.9703V60.322L8.41525 57.1441V52.9068L7.88559 47.6102L8.41525 43.3729V41.7839L10.5339 39.1356L12.1229 34.8983L10.5339 31.1907L9.47457 27.4831L10.0042 22.7161L13.1822 19.0085L16.3602 15.8305L19.5381 13.1822L24.3051 11.5932L31.7203 12.1229L38.0763 10.0042L39.6652 12.1229L41.7839 11.5932L44.4322 13.7119L48.6695 12.1229L51.3178 13.7119L56.0847 11.5932L59.2627 12.6525L60.8517 12.1229L62.9703 12.6525L65.089 13.7119L69.8559 16.8898L71.9746 20.5975L74.6229 23.7754V28.0127V32.25L74.0932 35.428L77.2712 42.3136L78.3305 46.0212L79.3898 50.2585L79.9195 55.0254L80.4491 58.7331L80.9788 62.4407L82.0381 66.678L82.5678 70.9153L84.1568 67.2076L83.6271 64.5593V61.3814V59.2627L84.6864 57.6737L85.7458 56.6144" stroke="black" stroke-width="1.05932"/>
<path d="M11.5932 47.6102L11.0636 50.2585L12.1229 48.6695L13.1822 47.6102L14.7712 47.0805L16.3602 46.0212L17.9492 45.4915L19.5381 44.9619H21.6568L23.7754 45.4915L25.8941 46.0212L26.9534 46.5509L26.4237 46.0212H28.0127L29.072 46.5509L30.661 47.0805L31.7203 47.6102H32.7797L33.3093 46.5509L33.839 45.4915L33.3093 44.4322L32.7797 43.3729L31.7203 42.3136H29.6017H28.0127L25.3644 41.7839L23.2458 41.2542H21.6568L19.5381 41.7839L20.0678 41.2542H18.4788L16.3602 41.7839L14.2415 43.9025L12.6525 45.4915L11.5932 47.6102Z" stroke="black" stroke-width="0.529661"/>
<path d="M56.0847 62.4407L60.322 64.0297H64.0297L67.7373 62.4407" stroke="black" stroke-width="0.529661"/>
<path d="M29.072 96.339L30.661 98.4576L32.7797 100.576L33.839 101.636L34.8983 102.165L37.017 103.225L39.1356 103.754L41.2542 104.284H43.9025H46.0212H48.1398L49.7288 103.754L51.8475 103.225L53.4364 102.165L54.4958 101.106L56.0847 99.517L57.6737 97.928L59.2627 96.339" stroke="black" stroke-width="0.211864"/>
<path d="M28.0127 93.6907H29.6017H31.7203L33.3093 93.161L34.8983 92.6313H36.4873H38.0763H39.6653L40.7246 93.161L41.7839 93.6907H43.3729L44.9619 93.161L46.5508 92.6313H48.1398H50.2585L52.3771 93.161L56.6144 93.6907H58.733" stroke="black" stroke-width="0.211864"/>
<path d="M35.428 96.8686L32.25 95.8093L37.0169 96.339L39.6653 96.8686H42.8432H46.5508H50.7881L52.5883 96.339H53.9661L56.6144 95.8093L54.4958 96.8686L52.5883 97.3983L50.7881 97.928H48.6695H45.4915H42.8432H39.1356L35.428 96.8686Z" stroke="black" stroke-width="0.211864"/>
<circle cx="24.3051" cy="56.6144" r="2.6483" fill="black"/>
<circle cx="60.322" cy="56.6144" r="2.6483" fill="black"/>
<path d="M21.1271 90.5127L21.6568 88.3941L22.7161 86.8051L23.7754 86.2754" stroke="black" stroke-width="0.211864"/>
<path d="M45.4915 96.8687V97.928" stroke="black" stroke-width="0.105932"/>
<path d="M2.58897 59.2627L5.76694 65.6186" stroke="black" stroke-width="0.317797"/>
<path d="M85.7458 75.6822L86.8051 74.0932L87.3347 72.5042L87.8644 71.4449V69.8559V68.2669V66.678L87.3347 65.089L86.8051 63.5L86.2754 62.4407" stroke="black" stroke-width="0.317797"/>
<path d="M35.428 87.9096C33.2458 87.9096 31.0452 87.8079 28.8658 87.9096C26.4502 88.0224 24.1155 90.3437 22.6465 92.3179C21.4226 93.9627 20.6724 96.3216 19.1206 97.6332C17.8948 98.6693 16.3269 98.8253 15.3008 97.5425" stroke="black" stroke-width="2.11864" stroke-linecap="round" stroke-linejoin="round"/>
<path d="M48.1398 87.8979C50.4121 87.8979 52.6845 87.8979 54.9568 87.8979C56.0241 87.8979 57.2966 87.7386 58.2917 88.1152C59.3234 88.5056 60.181 89.2858 60.8517 89.9935C62.6535 91.8946 63.9727 94.9178 66.8643 95.9856C70.0172 97.1499 72.6647 95.2081 74.6229 93.4863" stroke="black" stroke-width="2.11864" stroke-linecap="round" stroke-linejoin="round"/>
<path d="M54.4958 27.483C56.7097 27.483 58.8752 27.483 61.0726 27.483C61.6969 27.483 62.3347 27.483 62.9703 27.483" stroke="black" stroke-width="0.529661" stroke-linecap="round" stroke-linejoin="round"/>
<path d="M54.4958 31.7203C57.18 31.65 59.8315 31.1907 62.5247 31.1907C63.4597 31.1907 64.1879 30.661 65.089 30.661" stroke="black" stroke-width="0.529661" stroke-linecap="round" stroke-linejoin="round"/>
<path d="M57.6411 23.2458C57.6411 26.3465 57.6411 29.4472 57.6411 32.5479C57.6411 33.3783 57.8528 34.2493 57.1977 35.0418C56.9607 35.3285 56.3379 35.771 56.7544 35.9576" stroke="black" stroke-width="0.529661" stroke-linecap="round" stroke-linejoin="round"/>
<path d="M59.7924 23.2458C59.7924 27.4811 59.7924 31.7402 59.7924 35.9576" stroke="black" stroke-width="0.529661" stroke-linecap="round" stroke-linejoin="round"/>
</svg>
