<svg width="28" height="27" viewBox="0 0 28 27" fill="none" xmlns="http://www.w3.org/2000/svg">
<path d="M28 3.20726C26.9703 3.73448 25.8498 4.11392 24.6956 4.2617C25.8939 3.4167 26.7913 2.08173 27.2193 0.507265C26.0949 1.30124 24.863 1.858 23.5784 2.15283C23.0415 1.47154 22.3922 0.928799 21.6708 0.558419C20.9495 0.188038 20.1716 -0.00204411 19.3857 1.6577e-05C16.2057 1.6577e-05 13.6484 3.05948 13.6484 6.81392C13.6484 7.34114 13.7022 7.86836 13.7897 8.3756C9.02824 8.08004 4.78164 5.38004 1.95842 1.24617C1.444 2.28909 1.17442 3.47657 1.17774 4.68507C1.17774 7.04957 2.1906 9.13448 3.73513 10.3607C2.82492 10.3181 1.93602 10.0212 1.14073 9.49395V9.57782C1.14073 12.8889 3.11261 15.6328 5.74066 16.2639C5.24721 16.416 4.7396 16.4939 4.22978 16.4956C3.85627 16.4956 3.50294 16.4516 3.14626 16.3917C3.87309 19.0917 5.98966 21.0528 8.51003 21.1167C6.53816 22.95 4.06826 24.0284 1.38637 24.0284C0.90518 24.0284 0.461002 24.0084 0 23.9445C2.54393 25.8817 5.56231 27 8.81288 27C19.3655 27 25.1398 16.6234 25.1398 7.61673C25.1398 7.32117 25.1398 7.0256 25.1229 6.73004C26.2401 5.75948 27.2193 4.55726 28 3.20726Z" fill="black"/>
</svg>
